<svg xmlns="http://www.w3.org/2000/svg" viewBox="0 0 24 24"><path d="M15.75 18.875a.624.624 0 01-.442-.183l-1.458-1.458a.625.625 0 01.884-.884l.984.983 2.269-2.617a.625.625 0 11.944.818l-2.708 3.125a.624.624 0 01-.45.215.114.114 0 01-.023.001zm0 0"/><path d="M9.083 17.834H4.292A2.293 2.293 0 012 15.542V5.959a2.293 2.293 0 012.292-2.292h12.083a2.293 2.293 0 012.292 2.292v3.333a.625.625 0 01-1.25 0V5.959a1.043 1.043 0 00-1.042-1.042H4.292A1.043 1.043 0 003.25 5.959v9.583a1.043 1.043 0 001.042 1.042h4.791a.625.625 0 010 1.25zm0 0"/><path d="M18.042 8.25H2.625a.625.625 0 010-1.25h15.417a.625.625 0 010 1.25zm0 0M5.958 6.583a.625.625 0 01-.625-.625V2.625a.625.625 0 011.25 0v3.333a.625.625 0 01-.625.625zm0 0M14.708 6.583a.625.625 0 01-.625-.625V2.625a.625.625 0 011.25 0v3.333a.625.625 0 01-.625.625zm0 0M16.584 21.999a5.417 5.417 0 115.417-5.417 5.423 5.423 0 01-5.417 5.417zm0-9.583a4.167 4.167 0 104.167 4.167 4.171 4.171 0 00-4.167-4.166zm0 0"/></svg>