<svg xmlns="http://www.w3.org/2000/svg" viewBox="0 0 24 24">
  <g id="Radon" transform="translate(12974 9125)">
    <g id="nuclear" transform="translate(-12974 -9125)">
      <path  d="M217.046.158h0c-.01-.006-.02-.008-.029-.013a1,1,0,0,0-1.339.372h0l-3.28,5.62h0c-.006.011-.01.023-.016.035a.993.993,0,0,0-.068.149c0,.015-.006.031-.011.047a1.007,1.007,0,0,0-.033.144c0,.018,0,.036,0,.053a.986.986,0,0,0,0,.14c0,.014.005.028.007.043a1.023,1.023,0,0,0,.024.146c0,.01.007.018.01.027a1.031,1.031,0,0,0,.056.153c0,.005.006.01.009.014a.945.945,0,0,0,.092.151s.007.008.011.012a.96.96,0,0,0,.122.133l.016.011a1.041,1.041,0,0,0,.146.106h0a3.5,3.5,0,0,1,1.737,3.021,1,1,0,0,0,1,1H222a1,1,0,0,0,1-1A12.058,12.058,0,0,0,217.046.158Zm3.894,9.368h-4.548a5.5,5.5,0,0,0-1.815-3.156l2.294-3.932A10.058,10.058,0,0,1,220.94,9.526Zm0,0" transform="translate(-198.995 -0.021)" />
      <path  d="M8.5,10.505a3.5,3.5,0,0,1,1.737-3.02h0a.98.98,0,0,0,.129-.094c.01-.009.023-.015.033-.024a.994.994,0,0,0,.083-.09.706.706,0,0,0,.05-.055.966.966,0,0,0,.056-.091c.015-.025.032-.048.045-.074a.934.934,0,0,0,.034-.094c.01-.029.024-.056.032-.086s.01-.064.016-.1.013-.062.015-.094,0-.058,0-.087a.871.871,0,0,0,0-.107c0-.024-.011-.048-.017-.072a.981.981,0,0,0-.028-.119c-.008-.023-.021-.045-.03-.068a.977.977,0,0,0-.052-.115h0L7.317.5A1,1,0,0,0,5.949.137h0A12.058,12.058,0,0,0,0,10.505a1,1,0,0,0,1,1H7.5A1,1,0,0,0,8.5,10.505ZM6.124,2.417,8.418,6.349A5.5,5.5,0,0,0,6.6,9.5H2.056A10.058,10.058,0,0,1,6.124,2.417Zm0,0" transform="translate(0 0)" />
      <path  d="M100.962,228.952a.888.888,0,0,0,0-.1.99.99,0,0,0-.024-.108c-.007-.028-.01-.056-.019-.083a1.014,1.014,0,0,0-.059-.134c-.009-.017-.013-.034-.023-.051h0l-3.227-5.65h0c-.016-.027-.036-.05-.054-.075a1.051,1.051,0,0,0-.064-.089l-.015-.014a1,1,0,0,0-.293-.221c-.025-.012-.052-.019-.078-.03a1.041,1.041,0,0,0-.1-.038.993.993,0,0,0-.737.087l-.022.01h0a3.5,3.5,0,0,1-3.484-.006,1.035,1.035,0,0,0-.185-.083.986.986,0,0,0-.385-.048,1,1,0,0,0-.8.5l-3.25,5.629a1,1,0,0,0,.366,1.366,12.054,12.054,0,0,0,11.954.03h0a.82.82,0,0,0,.078-.055c.029-.021.061-.039.087-.062.007-.007.012-.015.019-.021a1.051,1.051,0,0,0,.115-.123l0,0a1.017,1.017,0,0,0,.1-.162c0-.006,0-.013.008-.02a1,1,0,0,0,.06-.159c0-.019.006-.039.01-.058a.957.957,0,0,0,.022-.131C100.966,229.01,100.962,228.981,100.962,228.952ZM90.4,228.522l2.273-3.938a5.328,5.328,0,0,0,3.641.007l2.257,3.953A10.054,10.054,0,0,1,90.4,228.522Zm0,0" transform="translate(-82.507 -208.414)"/>
    </g>
  </g>
</svg>
