<svg xmlns="http://www.w3.org/2000/svg" viewBox="0 0 24 24"><path d="M14.507 12.512a.64.64 0 10.649-1.1c-1.891-1.113-2.9-2.345-3.172-3.874a3.115 3.115 0 01.622-2.41 2.484 2.484 0 012.006-.845 2.578 2.578 0 011.9.721 2.874 2.874 0 01.772 2.045 4.112 4.112 0 01-1.6 3.193.64.64 0 10.773 1.02 5.418 5.418 0 002.11-4.206 4.162 4.162 0 00-1.145-2.954 3.861 3.861 0 00-2.811-1.1 3.733 3.733 0 00-2.987 1.3 4.411 4.411 0 00-.9 3.457 7.094 7.094 0 003.783 4.753z"/><path d="M21.359 20.435H8.729a25.2 25.2 0 01.385-5.481 4.932 4.932 0 012.383-1.909 3.842 3.842 0 003.258 1.813 3.809 3.809 0 003.228-1.813 4.927 4.927 0 012.381 1.908 14.481 14.481 0 01.278 3.84c0 .21-.005.4-.005.552a.64.64 0 001.28 0v-.536a14.46 14.46 0 00-.358-4.3c-.633-1.7-3.334-2.76-3.64-2.876a.641.641 0 00-.811.337 2.566 2.566 0 01-2.358 1.611 2.62 2.62 0 01-2.388-1.611.64.64 0 00-.811-.337c-.306.115-3.006 1.179-3.641 2.877-.311.834-.468 3.044-.468 6.568a.64.64 0 00.64.64h13.272a.64.64 0 100-1.279zM6.415 19.698H3.3a28.79 28.79 0 01.245-3.268 2.633 2.633 0 011.006-1.68.64.64 0 10-.766-1.025 3.89 3.89 0 00-1.5 2.469A37.1 37.1 0 002 20.326a.64.64 0 00.64.652h3.775a.64.64 0 100-1.279zM7.073 13.03a3.368 3.368 0 01-2.506-3.577 2.118 2.118 0 012.121-2.231A1.957 1.957 0 018.679 8.6a2.8 2.8 0 01-.908 3.046.64.64 0 00.78 1.015A4.06 4.06 0 009.89 8.188a3.237 3.237 0 00-3.2-2.245 3.337 3.337 0 00-3.4 3.5 4.631 4.631 0 003.381 4.806.64.64 0 00.4-1.214z"/></svg>